<svg width="22" height="22" viewBox="0 0 22 22" fill="none" xmlns="http://www.w3.org/2000/svg">
<path d="M20.2546 0.125L2.10259 0.125C1.11074 0.125 0.244141 0.838669 0.244141 1.81887L0.244141 20.0111C0.244141 20.9967 1.11074 21.8749 2.10259 21.8749L20.2492 21.8749C21.2464 21.8749 21.9941 20.9908 21.9941 20.0111L21.9941 1.81887C21.9999 0.838669 21.2464 0.125 20.2546 0.125ZM6.98613 18.2546L3.87026 18.2546L3.87026 8.56669L6.98613 8.56669L6.98613 18.2546ZM5.53597 7.09371H5.51364C4.51645 7.09371 3.87075 6.3514 3.87075 5.42217C3.87075 4.47596 4.53344 3.75112 5.55297 3.75112C6.5725 3.75112 7.19635 4.47062 7.21868 5.42217C7.2182 6.3514 6.57249 7.09371 5.53597 7.09371ZM18.3738 18.2546L15.2579 18.2546L15.2579 12.9575C15.2579 11.6884 14.8045 10.8213 13.6771 10.8213C12.8159 10.8213 12.3061 11.4039 12.0794 11.9714C11.9944 12.1753 11.9716 12.453 11.9716 12.7366L11.9716 18.2546L8.85575 18.2546L8.85575 8.56669L11.9716 8.56669L11.9716 9.91489C12.4251 9.26919 13.1334 8.33997 14.7816 8.33997C16.827 8.33997 18.3743 9.68817 18.3743 12.5948L18.3738 18.2546Z" fill="#4D8137"/>
</svg>
