<svg width="23" height="22" viewBox="0 0 23 22" fill="none" xmlns="http://www.w3.org/2000/svg">
<path fill-rule="evenodd" clip-rule="evenodd" d="M22.9941 11.233C22.9941 5.28459 17.8448 0.461426 11.4941 0.461426C5.14347 0.461426 -0.00585937 5.28459 -0.00585937 11.233C-0.00585937 16.6092 4.19883 21.0654 9.69726 21.8743L9.69726 14.3476L6.77657 14.3476L6.77657 11.233L9.69726 11.233L9.69726 8.85988C9.69726 6.16074 11.4146 4.66859 14.0411 4.66859C15.2994 4.66859 16.6157 4.87921 16.6157 4.87921L16.6157 7.53027L15.1649 7.53027C13.7371 7.53027 13.2905 8.36026 13.2905 9.21333L13.2905 11.233L16.4797 11.233L15.9704 14.3476L13.291 14.3476L13.291 21.8752C18.7894 21.0669 22.9941 16.6106 22.9941 11.233Z" fill="#4D8137"/>
</svg>
