<svg width="294" height="28" viewBox="0 0 294 28" fill="none" xmlns="http://www.w3.org/2000/svg">
<g clip-path="url(#clip0_433_1414)">
<path d="M107.352 0.444336H112.963V20.2221H125.219V24.8888H107.352V0.444336Z" fill="#4D8137"/>
<path d="M132.898 23.6299C130.869 22.5737 129.169 20.9789 127.982 19.0196C126.796 17.0602 126.168 14.8115 126.168 12.5187C126.168 10.226 126.796 7.97728 127.982 6.01791C129.169 4.05854 130.869 2.46378 132.898 1.40759C135.014 0.295459 137.375 -0.264941 139.764 -0.222049C142.13 -0.271856 144.469 0.289318 146.557 1.40759C148.537 2.44662 150.197 4.00914 151.356 5.92613C152.468 7.9039 153.053 10.1365 153.053 12.4076C153.053 14.6787 152.468 16.9114 151.356 18.8891C150.197 20.8061 148.537 22.3686 146.557 23.4077C144.469 24.5259 142.13 25.0871 139.764 25.0373C137.394 25.149 135.034 24.6652 132.898 23.6299ZM143.677 19.4817C144.824 18.8073 145.767 17.8347 146.409 16.6669C147.071 15.4403 147.402 14.0613 147.369 12.6668C147.411 11.2477 147.08 9.84256 146.409 8.59281C145.767 7.42495 144.824 6.45243 143.677 5.77795C142.478 5.12304 141.129 4.79122 139.764 4.81495C138.396 4.76575 137.041 5.09919 135.851 5.77795C134.704 6.45243 133.761 7.42495 133.119 8.59281C132.448 9.84256 132.117 11.2477 132.159 12.6668C132.126 14.0613 132.457 15.4403 133.119 16.6669C133.761 17.8347 134.704 18.8073 135.851 19.4817C137.041 20.1605 138.396 20.4938 139.764 20.4446C141.104 20.5601 142.451 20.3307 143.677 19.778V19.4817Z" fill="#4D8137"/>
<path d="M173.801 12.3706H178.969V22.2965C177.578 23.3512 176 24.1305 174.318 24.5928C172.628 25.1574 170.856 25.4329 169.076 25.4076C166.71 25.4574 164.371 24.8962 162.283 23.7779C160.303 22.7389 158.643 21.1764 157.484 19.2594C156.348 17.3047 155.761 15.0777 155.786 12.815C155.759 10.5287 156.345 8.27706 157.484 6.29646C158.643 4.37948 160.303 2.81707 162.283 1.77805C164.245 0.800955 166.39 0.249735 168.578 0.16039C170.766 0.0710455 172.948 0.445529 174.982 1.25948C176.705 1.89005 178.232 2.96275 179.412 4.37057L175.795 7.70388C174.99 6.82214 174.008 6.12196 172.913 5.64949C171.819 5.17701 170.636 4.94305 169.445 4.96318C168.008 4.93102 166.586 5.26221 165.31 5.92618C164.146 6.56975 163.177 7.5166 162.505 8.66688C161.808 9.9365 161.452 11.3658 161.471 12.815C161.464 14.2157 161.82 15.5943 162.505 16.8151C163.166 17.9926 164.137 18.966 165.31 19.6298C166.583 20.303 168.007 20.6348 169.445 20.5928C170.959 20.6022 172.453 20.2465 173.801 19.5558V12.3706Z" fill="#4D8137"/>
<path d="M184.139 0.444336H189.824V24.8888H184.139V0.444336Z" fill="#4D8137"/>
<path d="M198.018 24.5185C196.452 24.0994 194.976 23.3965 193.662 22.4445L195.582 18.2222C196.725 19.0003 197.967 19.623 199.273 20.074C200.684 20.5136 202.152 20.7384 203.629 20.7408C204.857 20.8441 206.089 20.5867 207.173 20C207.513 19.8206 207.801 19.5556 208.008 19.231C208.215 18.9063 208.335 18.5331 208.355 18.1482C208.367 17.8586 208.306 17.5705 208.177 17.3113C208.048 17.0521 207.855 16.8302 207.616 16.6667C207.11 16.2683 206.534 15.967 205.918 15.7779C204.976 15.4479 204.014 15.1757 203.039 14.963C201.488 14.6091 199.96 14.1638 198.461 13.6296C197.271 13.2126 196.222 12.4683 195.434 11.4815C194.534 10.4094 194.084 9.0283 194.179 7.62966C194.159 6.26395 194.545 4.92319 195.286 3.77777C196.137 2.53038 197.348 1.57404 198.757 1.03707C200.553 0.277253 202.494 -0.0767889 204.442 3.80287e-05C205.983 -0.0106738 207.519 0.163341 209.019 0.518498C210.373 0.865776 211.667 1.41512 212.858 2.14814L211.16 6.44445C209.098 5.22905 206.759 4.5659 204.368 4.51856C203.156 4.43926 201.948 4.72287 200.898 5.33338C200.555 5.54054 200.272 5.83423 200.078 6.18516C199.884 6.53609 199.784 6.93201 199.79 7.33341C199.791 7.73249 199.912 8.12204 200.135 8.45205C200.359 8.78206 200.676 9.03746 201.045 9.18526C202.323 9.73725 203.661 10.135 205.032 10.3704C206.583 10.7243 208.111 11.1696 209.61 11.7038C210.785 12.1498 211.826 12.8891 212.637 13.8519C213.09 14.3787 213.434 14.9904 213.649 15.6516C213.865 16.3128 213.947 17.0103 213.892 17.7037C213.883 19.0654 213.5 20.3982 212.785 21.5556C211.85 22.7515 210.631 23.6936 209.241 24.2963C207.43 25.0006 205.496 25.3283 203.556 25.2593C201.684 25.2784 199.819 25.0289 198.018 24.5185Z" fill="#4D8137"/>
<path d="M222.457 4.96316H215.074V0.370605H236.264V4.96316H228.512V24.8149H222.827L222.457 4.96316Z" fill="#4D8137"/>
<path d="M238.922 0.444336H244.607V24.8888H238.922V0.444336Z" fill="#4D8137"/>
<path d="M255.311 23.6298C253.337 22.6089 251.697 21.0405 250.586 19.1113C249.391 17.1783 248.776 14.941 248.814 12.6668C248.779 10.3696 249.393 8.10937 250.586 6.14836C251.697 4.21914 253.337 2.65076 255.311 1.62983C257.372 0.511336 259.688 -0.0502611 262.03 0.000193622C264.006 -0.0318844 265.966 0.346368 267.789 1.11126C269.432 1.84491 270.894 2.93242 272.071 4.2965L268.454 7.70385C267.736 6.76681 266.805 6.0157 265.739 5.51314C264.673 5.01058 263.503 4.77116 262.325 4.81496C260.936 4.78174 259.561 5.11374 258.339 5.77796C257.148 6.41879 256.172 7.39799 255.533 8.59281C254.862 9.84256 254.531 11.2477 254.573 12.6668C254.54 14.0613 254.871 15.4403 255.533 16.6669C256.172 17.8617 257.148 18.8409 258.339 19.4817C259.561 20.1459 260.936 20.4778 262.325 20.4446C263.503 20.4884 264.673 20.2491 265.739 19.7465C266.805 19.244 267.736 18.4928 268.454 17.5557L272.071 20.889C270.918 22.2971 269.451 23.4135 267.789 24.1483C265.963 24.9012 264.005 25.2791 262.03 25.2595C259.688 25.3099 257.372 24.7483 255.311 23.6298Z" fill="#4D8137"/>
<path d="M278.126 24.5185C276.56 24.0994 275.083 23.3964 273.77 22.4444L275.689 18.2221C276.833 19.0002 278.074 19.6229 279.381 20.074C280.791 20.5135 282.26 20.7383 283.737 20.7407C284.964 20.8276 286.191 20.5711 287.281 19.9999C287.612 19.8168 287.889 19.549 288.083 19.2238C288.278 18.8985 288.383 18.5274 288.388 18.1481C288.397 17.8667 288.342 17.587 288.227 17.3303C288.111 17.0736 287.94 16.8466 287.724 16.6666C287.217 16.2682 286.641 15.9669 286.026 15.7778C285.083 15.4478 284.122 15.1757 283.146 14.9629C281.593 14.6193 280.064 14.1739 278.569 13.6296C277.379 13.2125 276.33 12.4682 275.542 11.4815C274.615 10.4206 274.138 9.03829 274.213 7.62957C274.219 6.25687 274.63 4.91674 275.394 3.77769C276.245 2.53029 277.456 1.57395 278.864 1.03698C280.658 0.270045 282.601 -0.0842901 284.549 -4.79817e-05C286.066 -0.0150462 287.579 0.159069 289.053 0.518412C290.429 0.870082 291.746 1.41895 292.966 2.14805L291.194 6.44436C289.159 5.22879 286.843 4.56514 284.475 4.51848C283.264 4.43918 282.056 4.72278 281.005 5.33329C280.643 5.52474 280.341 5.81296 280.133 6.16597C279.924 6.51899 279.817 6.92303 279.824 7.33333C279.82 7.7438 279.946 8.14483 280.185 8.47796C280.425 8.81109 280.763 9.05889 281.153 9.18518C282.43 9.73716 283.769 10.1349 285.14 10.3703C286.69 10.7242 288.219 11.1695 289.717 11.7037C290.892 12.1497 291.934 12.889 292.744 13.8518C293.625 14.9349 294.072 16.3079 294 17.7037C294.016 19.0798 293.603 20.4268 292.818 21.5555C291.928 22.7653 290.729 23.712 289.348 24.2962C287.535 24.9889 285.603 25.3161 283.663 25.2592C281.791 25.2783 279.927 25.0288 278.126 24.5185Z" fill="#4D8137"/>
<path d="M0 10.4444V24.8888H5.24209V20.8147L0 10.4444ZM27.3918 10.4444L22.1497 20.7407V24.8888H27.8348L27.3918 10.4444ZM22.7403 0.444336L13.7328 15.6295L4.65142 0.444336H0L6.20189 12.074L12.4038 22.2962H14.9141L21.8544 10.7406L27.318 0.592516L22.7403 0.444336Z" fill="#4D8137"/>
<path d="M38.171 23.6299C36.1427 22.5737 34.4424 20.9789 33.2557 19.0196C32.069 17.0602 31.4414 14.8115 31.4414 12.5187C31.4414 10.226 32.069 7.97727 33.2557 6.01791C34.4424 4.05854 36.1427 2.46378 38.171 1.40759C40.2875 0.295459 42.6487 -0.264941 45.0374 -0.222049C47.4034 -0.271856 49.7424 0.289318 51.83 1.40759C53.8104 2.44662 55.4699 4.00914 56.6291 5.92613C57.7419 7.9039 58.3266 10.1365 58.3266 12.4076C58.3266 14.6787 57.7419 16.9114 56.6291 18.8891C55.4699 20.8061 53.8104 22.3686 51.83 23.4077C49.7424 24.5259 47.4034 25.0871 45.0374 25.0373C42.6675 25.149 40.3074 24.6652 38.171 23.6299ZM48.9505 19.4817C50.0971 18.8073 51.0409 17.8347 51.6824 16.6669C52.3444 15.4403 52.6753 14.0613 52.6422 12.6668C52.6848 11.2477 52.3537 9.84256 51.6824 8.59281C51.0409 7.42495 50.0971 6.45243 48.9505 5.77795C47.7511 5.12304 46.4028 4.79122 45.0374 4.81495C43.6693 4.76575 42.3145 5.09919 41.1243 5.77795C39.9778 6.45243 39.034 7.42495 38.3925 8.59281C37.7211 9.84256 37.3901 11.2477 37.4327 12.6668C37.3996 14.0613 37.7305 15.4403 38.3925 16.6669C39.034 17.8347 39.9778 18.8073 41.1243 19.4817C42.3145 20.1605 43.6693 20.4938 45.0374 20.4446C46.3771 20.5601 47.724 20.3307 48.9505 19.778V19.4817Z" fill="#4D8137"/>
<path d="M73.2415 16.2222V24.8888H67.6302V16.148L58.1797 0.444336H64.1601L70.6573 11.2592L77.1546 0.444336H82.692L73.2415 16.2222Z" fill="#4D8137"/>
<path d="M82.0273 24.8892H99.4518V28.0003H82.0273V24.8892Z" fill="#4D8137"/>
</g>
<defs>
<clipPath id="clip0_433_1414">
<rect width="294" height="28" fill="white"/>
</clipPath>
</defs>
</svg>
