<svg width="23" height="23" viewBox="0 0 23 23" fill="none" xmlns="http://www.w3.org/2000/svg">
<path d="M11.2448 2.7085C16.3076 2.7085 20.4115 6.81241 20.4115 11.8752C20.4115 16.9379 16.3076 21.0418 11.2448 21.0418C9.62485 21.0444 8.03341 20.6157 6.63397 19.7997L2.0818 21.0418L3.32114 16.4878C2.50447 15.088 2.07543 13.4958 2.07814 11.8752C2.07814 6.81241 6.18205 2.7085 11.2448 2.7085ZM8.1208 7.56683L7.93747 7.57416C7.81878 7.58139 7.70279 7.61257 7.59647 7.66583C7.49703 7.72214 7.40626 7.79254 7.32697 7.87483C7.21697 7.97841 7.15464 8.06825 7.08772 8.15533C6.74867 8.59616 6.56611 9.13737 6.56889 9.6935C6.57072 10.1427 6.68805 10.5799 6.87139 10.9887C7.2463 11.8156 7.86322 12.691 8.67722 13.5022C8.87339 13.6975 9.06589 13.8937 9.27306 14.0761C10.2845 14.9666 11.4898 15.6088 12.7931 15.9516L13.3137 16.0313C13.4833 16.0405 13.6529 16.0277 13.8234 16.0194C14.0904 16.0056 14.351 15.9333 14.587 15.8077C14.707 15.7458 14.8242 15.6785 14.9381 15.606C14.9381 15.606 14.9775 15.5803 15.0526 15.5235C15.1764 15.4318 15.2525 15.3667 15.3551 15.2595C15.4312 15.1807 15.4972 15.0881 15.5476 14.9827C15.6191 14.8332 15.6906 14.5482 15.72 14.3107C15.742 14.1292 15.7356 14.0302 15.7328 13.9688C15.7291 13.8707 15.6476 13.769 15.5586 13.7259L15.0251 13.4867C15.0251 13.4867 14.2276 13.1392 13.74 12.9174C13.6889 12.8951 13.6343 12.8824 13.5786 12.8798C13.5159 12.8734 13.4525 12.8804 13.3928 12.9005C13.333 12.9206 13.2782 12.9532 13.2321 12.9962C13.2276 12.9944 13.1661 13.0467 12.5034 13.8497C12.4653 13.9008 12.413 13.9394 12.3529 13.9606C12.2928 13.9819 12.2278 13.9847 12.1661 13.9688C12.1063 13.9528 12.0478 13.9326 11.991 13.9083C11.8773 13.8607 11.8379 13.8423 11.76 13.8093C11.2339 13.5797 10.7468 13.2696 10.3162 12.8899C10.2007 12.7891 10.0935 12.6791 9.98347 12.5727C9.62284 12.2274 9.30855 11.8367 9.04847 11.4104L8.99439 11.3233C8.95554 11.2648 8.92413 11.2017 8.90089 11.1354C8.86606 11.0007 8.9568 10.8925 8.9568 10.8925C8.9568 10.8925 9.17955 10.6487 9.28314 10.5167C9.38397 10.3883 9.46922 10.2637 9.52422 10.1747C9.63239 10.0006 9.6663 9.82183 9.60947 9.68341C9.3528 9.05641 9.08697 8.43216 8.8138 7.8125C8.75972 7.68966 8.5993 7.60166 8.45355 7.58425C8.40405 7.57875 8.35455 7.57325 8.30505 7.56958C8.18195 7.56346 8.05859 7.56469 7.93564 7.57325L8.1208 7.56683Z" fill="#4D8137"/>
</svg>
