<svg width="195" height="195" viewBox="0 0 195 195" fill="none" xmlns="http://www.w3.org/2000/svg">
<path d="M97.5014 18.2812C93.6928 18.2812 89.9086 19.5609 86.6484 21.9009L76.5572 28.9453L64.9303 30.4688H64.7414L64.5525 30.6577C60.7393 31.5188 57.2481 33.443 54.4839 36.2073C51.7196 38.9716 49.7954 42.4627 48.9342 46.2759L48.7514 46.4648V46.6538L47.228 58.4634L40.1836 67.6041L39.9886 67.793V67.9819C35.7291 74.7886 35.5402 83.5758 40.1836 90.0717L47.4169 100.163L49.3242 110.644L29.7084 140.534L23.4258 149.87H52.56L59.6044 166.244L63.9858 176.719L70.2684 167.194L89.5003 138.249C94.6678 140.37 100.5 140.565 105.503 138.249L124.734 167.194L131.017 176.719L135.398 166.244L142.443 149.87H171.577L165.294 140.534L146.251 111.595L147.775 100.169L154.819 90.0778L155.014 89.8889V89.7C159.274 82.8933 159.463 74.295 154.819 67.7991L147.775 57.7017L145.49 46.2759H145.679C145.654 46.1297 145.514 46.0322 145.49 45.892C144.393 37.9214 138.086 31.4498 130.066 30.4688H129.871L118.446 28.9453L108.354 21.9009C105.203 19.5921 101.408 18.3265 97.5014 18.2812ZM97.5014 30.6577C98.903 30.6577 100.286 31.0842 101.31 31.8033L112.163 39.6094L113.498 40.56L115.021 40.755L128.354 42.6562H128.537C131.279 42.9609 133.18 44.8683 133.491 47.6105V47.9883L135.971 61.5103L136.154 62.8448L137.111 63.9844L144.917 74.8373C146.373 76.8605 146.562 80.2913 144.728 83.2162L136.16 95.2148L135.965 96.7383L134.064 110.071V110.254C133.963 111.207 133.637 112.121 133.113 112.923L132.729 113.118V113.301C131.824 114.389 130.525 115.074 129.116 115.208H128.732L114.832 117.689L113.309 117.871L112.163 118.828L101.31 126.634C99.2869 128.091 95.6672 128.28 92.7422 126.445L82.8399 118.828L81.6942 117.878L79.9819 117.683L66.6488 115.781H66.4659C65.6043 115.705 64.7736 115.423 64.0439 114.958C63.3142 114.494 62.707 113.861 62.2734 113.112C61.8685 112.409 61.6094 111.632 61.5117 110.827V110.449L59.0377 96.5494L58.8427 95.0259L57.892 93.8803L50.0859 83.0273C48.6295 81.0042 48.4406 77.3845 50.2748 74.4595L57.892 64.5572L58.8427 63.4116L59.0316 61.6992L60.75 48.9389C60.7744 48.8475 60.9145 48.8475 60.9389 48.75C61.3188 47.2831 62.0842 45.9445 63.1557 44.873C64.2271 43.8015 65.5657 43.0361 67.0327 42.6562C67.1302 42.6319 67.1302 42.4917 67.2216 42.4673L79.9819 40.7489L81.5053 40.5661L82.8399 39.6094L93.6928 31.8033C94.7166 31.0903 96.0999 30.6577 97.5014 30.6577ZM139.585 123.398L148.92 137.682H134.247L132.723 141.491L128.537 151.198L115.588 131.393L118.44 129.303L130.444 127.207V127.396C130.584 127.372 130.676 127.231 130.822 127.207C134.029 126.744 137.06 125.429 139.585 123.398ZM55.418 123.587C58.064 125.993 61.3882 127.523 64.9364 127.969H65.1253L76.7461 129.492L79.4091 131.588L66.4599 151.198L62.2734 141.491L60.75 137.682H46.0884L55.418 123.587Z" fill="#4D8137" fill-opacity="0.2"/>
</svg>
