<svg width="29" height="29" viewBox="0 0 29 29" fill="none" xmlns="http://www.w3.org/2000/svg">
<path d="M20.5404 18.4205V26.7242C20.5404 26.831 20.512 26.936 20.4582 27.0284C20.4044 27.1208 20.3271 27.1972 20.2341 27.2499C20.1411 27.3026 20.0358 27.3297 19.9289 27.3284C19.822 27.3271 19.7173 27.2975 19.6257 27.2425L14.4987 24.1661L9.37174 27.2425C9.27996 27.2975 9.17521 27.3272 9.06822 27.3284C8.96123 27.3296 8.85583 27.3025 8.76279 27.2496C8.66975 27.1968 8.59242 27.1202 8.5387 27.0276C8.48498 26.9351 8.45679 26.8299 8.45703 26.7229V18.4217C6.89363 17.17 5.75761 15.4635 5.20596 13.5383C4.65432 11.613 4.71429 9.56387 5.37758 7.67414C6.04088 5.7844 7.27475 4.14734 8.90869 2.98919C10.5426 1.83104 12.4959 1.20898 14.4987 1.20898C16.5015 1.20898 18.4548 1.83104 20.0887 2.98919C21.7226 4.14734 22.9565 5.7844 23.6198 7.67414C24.2831 9.56387 24.3431 11.613 23.7914 13.5383C23.2398 15.4635 22.1038 17.17 20.5404 18.4217M14.4987 18.1244C16.4215 18.1244 18.2656 17.3606 19.6252 16.001C20.9849 14.6413 21.7487 12.7973 21.7487 10.8744C21.7487 8.95162 20.9849 7.10756 19.6252 5.74792C18.2656 4.38828 16.4215 3.62444 14.4987 3.62444C12.5759 3.62444 10.7318 4.38828 9.37217 5.74792C8.01254 7.10756 7.2487 8.95162 7.2487 10.8744C7.2487 12.7973 8.01254 14.6413 9.37217 16.001C10.7318 17.3606 12.5759 18.1244 14.4987 18.1244ZM14.4987 15.7078C13.2168 15.7078 11.9874 15.1985 11.081 14.2921C10.1746 13.3857 9.66536 12.1563 9.66536 10.8744C9.66536 9.59256 10.1746 8.36318 11.081 7.45676C11.9874 6.55033 13.2168 6.04111 14.4987 6.04111C15.7806 6.04111 17.01 6.55033 17.9164 7.45676C18.8228 8.36318 19.332 9.59256 19.332 10.8744C19.332 12.1563 18.8228 13.3857 17.9164 14.2921C17.01 15.1985 15.7806 15.7078 14.4987 15.7078Z" fill="#4D8137"/>
</svg>
