<svg width="30" height="31" viewBox="0 0 30 31" fill="none" xmlns="http://www.w3.org/2000/svg">
<mask id="mask0_361_8120" style="mask-type:luminance" maskUnits="userSpaceOnUse" x="1" y="1" width="28" height="28">
<path d="M15 27.6709C16.6418 27.673 18.2679 27.3507 19.7848 26.7224C21.3016 26.094 22.6793 25.1721 23.8388 24.0097C25.0012 22.8502 25.9231 21.4725 26.5515 19.9557C27.1798 18.4388 27.5021 16.8127 27.5 15.1709C27.5021 13.5291 27.1797 11.903 26.5514 10.3862C25.9231 8.86933 25.0012 7.4916 23.8388 6.33216C22.6793 5.16968 21.3016 4.24778 19.7848 3.61946C18.2679 2.99114 16.6418 2.66878 15 2.67091C13.3582 2.66882 11.7321 2.99119 10.2153 3.61951C8.69843 4.24783 7.3207 5.1697 6.16126 6.33216C4.9988 7.4916 4.07693 8.86933 3.44861 10.3862C2.82029 11.903 2.49792 13.5291 2.50001 15.1709C2.49788 16.8127 2.82024 18.4388 3.44856 19.9557C4.07688 21.4725 4.99878 22.8502 6.16126 24.0097C7.3207 25.1721 8.69843 26.094 10.2153 26.7223C11.7321 27.3506 13.3582 27.673 15 27.6709Z" fill="white" stroke="white" stroke-width="2" stroke-linejoin="round"/>
<path d="M10 15.1709L13.75 18.9209L21.25 11.4209" stroke="black" stroke-width="2" stroke-linecap="round" stroke-linejoin="round"/>
</mask>
<g mask="url(#mask0_361_8120)">
<path d="M0 0.170898H30V30.1709H0V0.170898Z" fill="#4D8137"/>
</g>
</svg>
