<svg width="36" height="37" viewBox="0 0 36 37" fill="none" xmlns="http://www.w3.org/2000/svg">
<rect x="-0.5" y="0.5" width="35" height="35.031" rx="17.5" transform="matrix(-1 0 0 1 35 0)" stroke="#4D8137"/>
<path fill-rule="evenodd" clip-rule="evenodd" d="M12.0005 18.0155C12.0005 18.2144 12.0795 18.4052 12.2201 18.5458C12.3608 18.6865 12.5516 18.7655 12.7505 18.7655H23.3885L19.2305 22.7255C19.1561 22.7929 19.0961 22.8746 19.0539 22.9657C19.0117 23.0568 18.9882 23.1554 18.9848 23.2557C18.9814 23.356 18.9982 23.456 19.0342 23.5497C19.0701 23.6434 19.1245 23.729 19.1941 23.8013C19.2638 23.8736 19.3472 23.9311 19.4395 23.9706C19.5318 24.0101 19.631 24.0306 19.7314 24.031C19.8318 24.0314 19.9312 24.0117 20.0238 23.9729C20.1164 23.9342 20.2003 23.8773 20.2705 23.8055L25.7705 18.5555C25.8431 18.4855 25.9008 18.4017 25.9402 18.3089C25.9797 18.2161 26 18.1163 26 18.0155C26 17.9147 25.9797 17.8149 25.9402 17.7221C25.9008 17.6294 25.8431 17.5455 25.7705 17.4755L20.2705 12.2255C20.2003 12.1538 20.1164 12.0968 20.0238 12.0581C19.9312 12.0194 19.8318 11.9996 19.7314 12C19.631 12.0004 19.5318 12.0209 19.4395 12.0604C19.3472 12.0999 19.2638 12.1575 19.1941 12.2298C19.1245 12.3021 19.0701 12.3876 19.0342 12.4813C18.9982 12.575 18.9814 12.675 18.9848 12.7753C18.9882 12.8756 19.0117 12.9743 19.0539 13.0653C19.0961 13.1564 19.1561 13.2381 19.2305 13.3055L23.3885 17.2655H12.7505C12.5516 17.2655 12.3608 17.3445 12.2201 17.4852C12.0795 17.6258 12.0005 17.8166 12.0005 18.0155Z" fill="#1A2914"/>
</svg>
