<svg width="77" height="66" viewBox="0 0 77 66" fill="none" xmlns="http://www.w3.org/2000/svg">
<path d="M17.8047 55.8257H53.6743" stroke="white" stroke-width="2" stroke-linecap="round" stroke-linejoin="round"/>
<path d="M34.834 40.8677L50.356 31.5228" stroke="white" stroke-width="2" stroke-linecap="round" stroke-linejoin="round"/>
<path d="M10.1953 38.2788L16.2105 44.294" stroke="white" stroke-width="2" stroke-linecap="round" stroke-linejoin="round"/>
<path d="M1.5 36.105L7.51521 42.1202" stroke="white" stroke-width="2" stroke-linecap="round" stroke-linejoin="round"/>
<path d="M16.2687 35.8345L25.7262 44.9066C26.9873 46.1177 28.5962 46.8794 30.3137 47.0785C32.0313 47.2776 33.7657 46.9035 35.259 46.0117L73.2396 23.3956L68.5735 17.536C67.3598 16.0173 65.6558 14.9934 63.7695 14.6493C61.8832 14.3053 59.939 14.6637 58.2882 15.6599L47.1499 22.3676L32.0981 17.2276L27.9589 19.0523C27.6492 19.1882 27.3779 19.4019 27.1701 19.6735C26.9622 19.9451 26.8244 20.266 26.7694 20.6065C26.7144 20.9471 26.744 21.2963 26.8554 21.622C26.9669 21.9478 27.1565 22.2395 27.407 22.4704L35.1085 29.5636L28.0843 33.6757L21.0602 30.5916L16.8457 32.4421C16.5391 32.577 16.2701 32.7881 16.0632 33.0563C15.8563 33.3246 15.7179 33.6414 15.6606 33.9782C15.6034 34.315 15.629 34.6611 15.7351 34.9853C15.8413 35.3094 16.0247 35.6012 16.2687 35.8345V35.8345Z" stroke="white" stroke-width="2" stroke-linecap="round" stroke-linejoin="round"/>
<path d="M69.4352 18.8694C63.4052 23.6055 57.4528 24.2007 53.1309 18.8694L56.5268 16.6621C60.7468 13.919 66.3664 14.88 69.4352 18.8694Z" fill="white" stroke="white" stroke-width="2"/>
</svg>
