<svg width="71" height="71" viewBox="0 0 71 71" fill="none" xmlns="http://www.w3.org/2000/svg">
<g filter="url(#filter0_d_262_557)">
<circle cx="35.5" cy="31.5" r="31" fill="white" stroke="#4D8137"/>
<path d="M27.9741 22.1408C27.8394 22.1449 27.7071 22.1743 27.5848 22.2272C27.4625 22.28 27.3528 22.3554 27.2622 22.4487C27.1715 22.542 27.1018 22.6514 27.0571 22.7704C27.0124 22.8894 26.9936 23.0156 27.0019 23.1416C27.1364 25.3015 27.7704 30.5716 30.8059 33.8583C34.4409 37.8181 39.1748 39.1824 44.0317 38.9808C44.292 38.9662 44.5368 38.8596 44.7165 38.6826C44.8962 38.5055 44.9975 38.2712 45 38.0268V34.5674C44.997 34.2446 44.8783 33.9322 44.663 33.6802C44.4476 33.4282 44.1482 33.2513 43.8127 33.1779L41.3804 32.6739C41.0796 32.6138 40.7664 32.6397 40.4815 32.7481C40.1965 32.8566 39.9528 33.0427 39.7819 33.2823L39.244 34.0454C39.1946 34.1153 39.1208 34.1668 39.0352 34.1911C38.9496 34.2154 38.8577 34.211 38.7752 34.1786C37.5379 33.6783 32.6081 31.5184 32.0663 27.8753C32.0557 27.805 32.0675 27.7333 32.1003 27.6692C32.1332 27.6051 32.1855 27.5516 32.2507 27.5154L33.2267 26.9574C33.4944 26.802 33.7047 26.5732 33.8291 26.3022C33.9535 26.0311 33.986 25.7308 33.9222 25.4419L33.3881 23.1236C33.31 22.7988 33.1142 22.5093 32.8339 22.3045C32.5537 22.0998 32.2064 21.9923 31.8511 22.0004L27.9741 22.1408Z" stroke="#4D8137"/>
</g>
<defs>
<filter id="filter0_d_262_557" x="0" y="0" width="71" height="71" filterUnits="userSpaceOnUse" color-interpolation-filters="sRGB">
<feFlood flood-opacity="0" result="BackgroundImageFix"/>
<feColorMatrix in="SourceAlpha" type="matrix" values="0 0 0 0 0 0 0 0 0 0 0 0 0 0 0 0 0 0 127 0" result="hardAlpha"/>
<feOffset dy="4"/>
<feGaussianBlur stdDeviation="2"/>
<feComposite in2="hardAlpha" operator="out"/>
<feColorMatrix type="matrix" values="0 0 0 0 0.302408 0 0 0 0 0.504948 0 0 0 0 0.217128 0 0 0 0.25 0"/>
<feBlend mode="normal" in2="BackgroundImageFix" result="effect1_dropShadow_262_557"/>
<feBlend mode="normal" in="SourceGraphic" in2="effect1_dropShadow_262_557" result="shape"/>
</filter>
</defs>
</svg>
