<svg width="87" height="87" viewBox="0 0 87 87" fill="none" xmlns="http://www.w3.org/2000/svg">
<g opacity="0.3">
<path d="M43.5 8.15625C24.012 8.15625 8.15625 24.012 8.15625 43.5C8.15625 62.988 24.012 78.8438 43.5 78.8438C62.988 78.8438 78.8438 62.988 78.8438 43.5C78.8438 24.012 62.988 8.15625 43.5 8.15625ZM43.5 13.5938C60.049 13.5938 73.4062 26.951 73.4062 43.5C73.4062 60.049 60.049 73.4062 43.5 73.4062C26.951 73.4062 13.5938 60.049 13.5938 43.5C13.5938 26.951 26.951 13.5938 43.5 13.5938ZM48.3394 25.23L32.0269 41.5425L30.1618 43.5L32.0296 45.4575L48.3421 61.77L52.2571 57.855L37.8912 43.5L52.2462 29.145L48.3394 25.23Z" fill="#4D8137"/>
</g>
</svg>
