<svg width="87" height="87" viewBox="0 0 87 87" fill="none" xmlns="http://www.w3.org/2000/svg">
<path d="M43.5 8.15625C62.988 8.15625 78.8438 24.012 78.8438 43.5C78.8438 62.988 62.988 78.8438 43.5 78.8438C24.012 78.8438 8.15625 62.988 8.15625 43.5C8.15625 24.012 24.012 8.15625 43.5 8.15625ZM43.5 13.5938C26.951 13.5938 13.5938 26.951 13.5938 43.5C13.5938 60.049 26.951 73.4062 43.5 73.4062C60.049 73.4062 73.4062 60.049 73.4062 43.5C73.4062 26.951 60.049 13.5938 43.5 13.5938ZM38.6606 25.23L54.9731 41.5425L56.8382 43.5L54.9704 45.4575L38.6579 61.77L34.7429 57.855L49.1088 43.5L34.7538 29.145L38.6606 25.23Z" fill="#4D8137"/>
</svg>
