<svg width="52" height="56" viewBox="0 0 52 56" fill="none" xmlns="http://www.w3.org/2000/svg">
<path d="M26 7.47256V1.30762" stroke="white" stroke-width="2" stroke-linecap="round" stroke-linejoin="round"/>
<path d="M50.6594 36.2423C46.909 49.3428 29.5444 53.9152 26.462 54.6344C26.1586 54.7116 25.8406 54.7116 25.5372 54.6344C22.4548 53.9152 5.09018 49.3428 1.33984 36.2423V27.4573C1.33981 27.0246 1.47636 26.6029 1.73005 26.2524C1.98374 25.9018 2.3416 25.6403 2.75264 25.5051L25.3574 17.953C25.7759 17.8243 26.2233 17.8243 26.6418 17.953L49.2466 25.5051C49.6576 25.6403 50.0155 25.9018 50.2691 26.2524C50.5228 26.6029 50.6594 27.0246 50.6594 27.4573V36.2423Z" stroke="white" stroke-width="2" stroke-linecap="round" stroke-linejoin="round"/>
<path d="M26.4669 47.9728C24.0281 47.4113 10.2895 43.8417 7.32227 33.6143" stroke="white" stroke-width="2" stroke-linecap="round" stroke-linejoin="round"/>
<path d="M7.32227 10.29V23.4434L25.8687 16.8624L44.4151 23.4434V10.29C44.4151 8.63318 43.0719 7.29004 41.4151 7.29004H10.3223C8.66541 7.29004 7.32227 8.63318 7.32227 10.29Z" fill="white" stroke="white" stroke-width="2"/>
<path d="M26 38.2976V17.8506" stroke="white" stroke-width="2" stroke-linecap="round" stroke-linejoin="round"/>
<path d="M31.2539 37.2039L31.2539 28.8281" stroke="white" stroke-width="2" stroke-linecap="round" stroke-linejoin="round"/>
<path d="M12.1094 18.0589V12.0762" stroke="white" stroke-width="2" stroke-linecap="round" stroke-linejoin="round"/>
<path d="M49.2012 20.4525V9.68359" stroke="white" stroke-width="2" stroke-linecap="round" stroke-linejoin="round"/>
</svg>
