<svg width="58" height="46" viewBox="0 0 58 46" fill="none" xmlns="http://www.w3.org/2000/svg">
<path d="M2.80859 45H55.1895" stroke="white" stroke-width="2" stroke-linecap="round" stroke-linejoin="round"/>
<path d="M33.1912 45V2.91304C33.1912 2.40567 32.9862 1.91908 32.6214 1.56032C32.2565 1.20155 31.7616 1 31.2456 1H7.8987C7.3827 1 6.88784 1.20155 6.52297 1.56032C6.15811 1.91908 5.95313 2.40567 5.95312 2.91304V45" stroke="white" stroke-width="2" stroke-linecap="round" stroke-linejoin="round"/>
<path d="M33.1895 13.5713H49.0466C50.7034 13.5713 52.0466 14.9144 52.0466 16.5713V43.9522H33.1895V13.5713Z" fill="white" stroke="white" stroke-width="2" stroke-linecap="round" stroke-linejoin="round"/>
<path d="M14.334 10.4287H21.6673" stroke="white" stroke-width="2" stroke-linecap="round" stroke-linejoin="round"/>
<path d="M1.76172 40.8096L1.76172 26.1429" stroke="white" stroke-width="2" stroke-linecap="round" stroke-linejoin="round"/>
<path d="M56.2383 30.333L56.2383 15.6663" stroke="white" stroke-width="2" stroke-linecap="round" stroke-linejoin="round"/>
<path d="M36.334 9.38086L43.6673 9.38086" stroke="white" stroke-width="2" stroke-linecap="round" stroke-linejoin="round"/>
<path d="M17.4766 26.1426H24.8099" stroke="white" stroke-width="2" stroke-linecap="round" stroke-linejoin="round"/>
<path d="M14.334 35.5713H21.6673" stroke="white" stroke-width="2" stroke-linecap="round" stroke-linejoin="round"/>
<path d="M40.5234 35.5713H44.7139" stroke="white" stroke-width="2" stroke-linecap="round" stroke-linejoin="round"/>
<path d="M40.5234 26.1426H44.7139" stroke="white" stroke-width="2" stroke-linecap="round" stroke-linejoin="round"/>
</svg>
